<svg id="mermaidChart265" width="100%" xmlns="http://www.w3.org/2000/svg" height="100%" style="max-width:1050px;" viewBox="-50 -10 1050 648"><style type="text/css" title="mermaid-svg-internal-css">/*  */
*, ::before, ::after { box-sizing: inherit;}
.actor { stroke: rgb(204, 204, 255); fill: rgb(226, 236, 255);}
text.actor { fill: black; stroke: none; font-size: 12px;}
.actor-line { stroke: grey;}
.messageLine0 { stroke-width: 1.5; stroke: black;}
#arrowhead { fill: black;}
.messageText { fill: black; stroke: none; font-size: 12px;}
.labelBox { stroke: rgb(204, 204, 255); fill: rgb(236, 236, 255);}
.labelText { fill: black; stroke: none;}
.loopText { fill: black; stroke: none;}
.loopLine { stroke-width: 2; stroke: rgb(204, 204, 255);}
.note { stroke: rgb(204, 204, 255); fill: rgb(255, 245, 173);}
.noteText { fill: black; stroke: none; font-size: 12px;}
.actor { stroke: rgb(204, 204, 255); fill: rgb(236, 236, 255);}
text.actor { fill: black; stroke: none;}
.actor-line { stroke: grey;}
.messageLine0 { stroke-width: 1.5; stroke: rgb(51, 51, 51);}
#arrowhead { fill: rgb(51, 51, 51);}
#crosshead path { fill: rgb(51, 51, 51) !important; stroke: rgb(51, 51, 51) !important;}
.messageText { fill: rgb(51, 51, 51); stroke: none;}
.labelBox { stroke: rgb(204, 204, 255); fill: rgb(236, 236, 255);}
.labelText { fill: black; stroke: none;}
.loopText { fill: black; stroke: none;}
.loopLine { stroke-width: 2; stroke: rgb(204, 204, 255);}
.note { stroke: rgb(170, 170, 51); fill: rgb(255, 245, 173);}
.noteText { fill: black; stroke: none; font-family: "trebuchet ms", verdana, arial; font-size: 14px;}
text { font-family: "trebuchet ms", verdana, arial; font-size: 14px;}
/*  */
</style><g></g><g><line id="actor2257" x1="75" y1="5" x2="75" y2="637" class="actor-line" stroke-width="0.5px" stroke="#999"></line><rect x="0" y="0" fill="#eaeaea" stroke="#666" width="150" height="65" rx="3" ry="3" class="actor"></rect><text x="75" y="37.5" class="actor" style="text-anchor: middle;">Usuario</text></g><g><line id="actor2258" x1="275" y1="5" x2="275" y2="637" class="actor-line" stroke-width="0.5px" stroke="#999"></line><rect x="200" y="0" fill="#eaeaea" stroke="#666" width="150" height="65" rx="3" ry="3" class="actor"></rect><text x="275" y="37.5" class="actor" style="text-anchor: middle;">Integrador</text></g><g><line id="actor2259" x1="475" y1="5" x2="475" y2="637" class="actor-line" stroke-width="0.5px" stroke="#999"></line><rect x="400" y="0" fill="#eaeaea" stroke="#666" width="150" height="65" rx="3" ry="3" class="actor"></rect><text x="475" y="37.5" class="actor" style="text-anchor: middle;">API_LIF</text></g><g><line id="actor2260" x1="675" y1="5" x2="675" y2="637" class="actor-line" stroke-width="0.5px" stroke="#999"></line><rect x="600" y="0" fill="#eaeaea" stroke="#666" width="150" height="65" rx="3" ry="3" class="actor"></rect><text x="675" y="37.5" class="actor" style="text-anchor: middle;">Cybersource</text></g><g><line id="actor2261" x1="875" y1="5" x2="875" y2="637" class="actor-line" stroke-width="0.5px" stroke="#999"></line><rect x="800" y="0" fill="#eaeaea" stroke="#666" width="150" height="65" rx="3" ry="3" class="actor"></rect><text x="875" y="37.5" class="actor" style="text-anchor: middle;">Emisor</text></g><defs><marker id="arrowhead" refX="5" refY="2" markerWidth="6" markerHeight="4" orient="auto"><path d="M 0,0 V 4 L6,2 Z"></path></marker></defs><defs><marker id="crosshead" markerWidth="15" markerHeight="8" orient="auto" refX="16" refY="4"><path fill="black" stroke="#000000" stroke-width="1px" d="M 9,2 V 6 L16,4 Z" style="stroke-dasharray: 0, 0;"></path><path fill="none" stroke="#000000" stroke-width="1px" d="M 0,1 L 6,7 M 6,1 L 0,7" style="stroke-dasharray: 0, 0;"></path></marker></defs><g><text x="175" y="93" class="messageText" style="text-anchor: middle;">Compra</text><line x1="75" y1="100" x2="275" y2="100" class="messageLine0" stroke-width="2" stroke="black" marker-end="url(#arrowhead)" style="fill: none;"></line></g><g><rect x="270" y="102" fill="#f4f4f4" stroke="#666" width="10" height="450" rx="0" ry="0"></rect></g><g><text x="377.5" y="153" class="messageText" style="text-anchor: middle;">Consulta caracteristicas BIN</text><line x1="280" y1="160" x2="475" y2="160" class="messageLine0" stroke-width="2" stroke="black" marker-end="url(#arrowhead)" style="fill: none;"></line></g><g><rect x="470" y="162" fill="#f4f4f4" stroke="#666" width="10" height="33" rx="0" ry="0"></rect></g><g><text x="375" y="188" class="messageText" style="text-anchor: middle;">Responde caracteristicas BIN</text><line x1="470" y1="195" x2="280" y2="195" class="messageLine0" stroke-width="2" stroke="black" marker-end="url(#arrowhead)" style="fill: none;"></line></g><g><line x1="260" y1="110" x2="490" y2="110" stroke-width="2" stroke="#526e52" class="loopLine"></line><line x1="490" y1="110" x2="490" y2="205" stroke-width="2" stroke="#526e52" class="loopLine"></line><line x1="260" y1="205" x2="490" y2="205" stroke-width="2" stroke="#526e52" class="loopLine"></line><line x1="260" y1="110" x2="260" y2="205" stroke-width="2" stroke="#526e52" class="loopLine"></line><rect x="260" y="110" fill="#526e52" stroke="none" width="50" height="20" rx="0" ry="0" class="labelBox"></rect><text x="267.5" y="125" fill="white" class="labelText"><tspan x="267.5">opt</tspan></text><text x="375" y="125" fill="black" class="loopText" style="text-anchor: middle;"><tspan x="375">[ : ¿Tarjeta nueva? ]</tspan></text></g><g><text x="377.5" y="258" class="messageText" style="text-anchor: middle;">Envia BIN y factura</text><line x1="280" y1="265" x2="475" y2="265" class="messageLine0" stroke-width="2" stroke="black" marker-end="url(#arrowhead)" style="fill: none;"></line></g><g><rect x="470" y="267" fill="#f4f4f4" stroke="#666" width="10" height="100" rx="0" ry="0"></rect></g><g><rect x="400" y="275" fill="#EDF2AE" stroke="#666" width="150" height="57" rx="0" ry="0" class="note"></rect><text x="416" y="303" fill="black" class="noteText"><tspan x="416">Calcula Devolución</tspan><tspan dy="21" x="416">Impuestos</tspan></text></g><g><text x="375" y="360" class="messageText" style="text-anchor: middle;">Responde con calculo devolución</text><line x1="470" y1="367" x2="280" y2="367" class="messageLine0" stroke-width="2" stroke="black" marker-end="url(#arrowhead)" style="fill: none;"></line></g><g><line x1="260" y1="215" x2="560" y2="215" stroke-width="2" stroke="#526e52" class="loopLine"></line><line x1="560" y1="215" x2="560" y2="377" stroke-width="2" stroke="#526e52" class="loopLine"></line><line x1="260" y1="377" x2="560" y2="377" stroke-width="2" stroke="#526e52" class="loopLine"></line><line x1="260" y1="215" x2="260" y2="377" stroke-width="2" stroke="#526e52" class="loopLine"></line><rect x="260" y="215" fill="#526e52" stroke="none" width="50" height="20" rx="0" ry="0" class="labelBox"></rect><text x="267.5" y="230" fill="white" class="labelText"><tspan x="267.5">opt</tspan></text><text x="410" y="230" fill="black" class="loopText" style="text-anchor: middle;"><tspan x="410">[ : ¿Aplica devolución impuestos? ]</tspan></text></g><g><text x="477.5" y="405" class="messageText" style="text-anchor: middle;">Envía Transacción</text><line x1="280" y1="412" x2="675" y2="412" class="messageLine0" stroke-width="2" stroke="black" marker-end="url(#arrowhead)" style="fill: none;"></line></g><g><rect x="670" y="414" fill="#f4f4f4" stroke="#666" width="10" height="103" rx="0" ry="0"></rect></g><g><text x="777.5" y="440" class="messageText" style="text-anchor: middle;">Solicita autorización</text><line x1="680" y1="447" x2="875" y2="447" class="messageLine0" stroke-width="2" stroke="black" marker-end="url(#arrowhead)" style="fill: none;"></line></g><g><text x="777.5" y="475" class="messageText" style="text-anchor: middle;">Respuesta Emisor</text><line x1="875" y1="482" x2="680" y2="482" class="messageLine0" stroke-width="2" stroke="black" marker-end="url(#arrowhead)" style="fill: none;"></line></g><g><text x="475" y="510" class="messageText" style="text-anchor: middle;">Informa Resultado</text><line x1="670" y1="517" x2="280" y2="517" class="messageLine0" stroke-width="2" stroke="black" marker-end="url(#arrowhead)" style="fill: none;"></line></g><g><text x="172.5" y="545" class="messageText" style="text-anchor: middle;">Informa resultado</text><line x1="270" y1="552" x2="75" y2="552" class="messageLine0" stroke-width="2" stroke="black" marker-end="url(#arrowhead)" style="fill: none;"></line></g><g><rect x="0" y="572" fill="#eaeaea" stroke="#666" width="150" height="65" rx="3" ry="3" class="actor"></rect><text x="75" y="609.5" class="actor" style="text-anchor: middle;">Usuario</text></g><g><rect x="200" y="572" fill="#eaeaea" stroke="#666" width="150" height="65" rx="3" ry="3" class="actor"></rect><text x="275" y="609.5" class="actor" style="text-anchor: middle;">Integrador</text></g><g><rect x="400" y="572" fill="#eaeaea" stroke="#666" width="150" height="65" rx="3" ry="3" class="actor"></rect><text x="475" y="609.5" class="actor" style="text-anchor: middle;">API_LIF</text></g><g><rect x="600" y="572" fill="#eaeaea" stroke="#666" width="150" height="65" rx="3" ry="3" class="actor"></rect><text x="675" y="609.5" class="actor" style="text-anchor: middle;">Cybersource</text></g><g><rect x="800" y="572" fill="#eaeaea" stroke="#666" width="150" height="65" rx="3" ry="3" class="actor"></rect><text x="875" y="609.5" class="actor" style="text-anchor: middle;">Emisor</text></g></svg>